mtllib material.mtl
o Default
v -11 0.0006361789419315755 6.000649929046631
v -10 0.0006749359890818596 7.0007500648498535
v -11 0.0006721479585394263 7.0007500648498535
v -10 0.0005820332444272935 6.000549793243408
v -6 0.00048634293489158154 5.000450134277344
v -5 0.0005785006796941161 6.000549793243408
v -6 0.0005766854737885296 6.000549793243408
v -5 0.000491127313580364 5.000450134277344
v -2 0.0005980166024528444 6.000549793243408
v -1 0.0007476652390323579 7.000649929046631
v -2 0.0006721215904690325 7.0007500648498535
v -1 0.0005528821493498981 6.000549793243408
v -3 0.0005519865662790835 6.000549793243408
v -3 0.0006781089468859136 7.0007500648498535
v -4 0.0005519865662790835 6.000549793243408
v -4 0.0006828192854300141 7.0007500648498535
v -5 0.0006887313211336732 7.0007500648498535
v -6 0.0006906427443027496 7.0007500648498535
v -7 0.0005766854737885296 6.000549793243408
v -7 0.000691969005856663 7.0007500648498535
v -8 0.0005789718707092106 6.000549793243408
v -8 0.0006941144238226116 7.0007500648498535
v -9 0.0005807544221170247 6.000549793243408
v -9 0.0006842099246568978 7.0007500648498535
v -11 0.0005199479637667537 5.000549793243408
v -10 0.0004889791016466916 5.000450134277344
v -9 0.0005100754788145423 5.000450134277344
v -8 0.0004966827691532671 5.000450134277344
v -7 0.00048644881462678313 5.000450134277344
v -4 0.000491127313580364 5.000450134277344
v -2 0.0004625473520718515 5.000450134277344
v -1 0.0004886736278422177 5.000450134277344
v -3 0.0005074259825050831 5.000450134277344
v -4 0.00041510877781547606 4.000349998474121
v -3 0.00041890397551469505 4.000349998474121
v -8 0.00039668273529969156 4.000450134277344
v -7 0.000417802861193195 4.000349998474121
v -6 0.00041796237928792834 4.000349998474121
v -5 0.00041699831490404904 4.000349998474121
v -2 0.00042014362406916916 4.000349998474121
v -1 0.0003674894105643034 4.000349998474121
v -2 0.00030566315399482846 3.0002498626708984
v -1 0.00028202374232932925 3.0002498626708984
v -3 0.00030270841671153903 3.0002498626708984
v -4 0.00030240340856835246 3.0002498626708984
v -5 0.00030912476358935237 3.0002498626708984
v -6 0.0003131972043775022 3.0002498626708984
v -7 0.0003146578965242952 3.0002498626708984
v -8 0.0003161954809911549 3.0002498626708984
v -9 0.0003024135367013514 3.0002498626708984
v -9 0.00035361089976504445 4.000349998474121
v -10 0.00035361089976504445 4.000349998474121
v -11 0.00043545663356781006 4.000450134277344
v -10 0.0001862899516709149 2.000149965286255
v -10 0.0002535667736083269 3.0002501010894775
v -9 0.00020241353195160627 2.0002501010894775
v -11 0.00032273278338834643 3.000349998474121
v -11 0.00024799088714644313 2.0002501010894775
v -11 0.00014107020979281515 1.0001499652862549
v -10 0.00012451870134100318 1.0000499486923218
v -9 0.00014181973529048264 1.0000499486923218
v -8 0.0001512238522991538 2.000149965286255
v -8 0.000144469304359518 1.0000499486923218
v -7 0.0001512238522991538 2.000149965286255
v -6 0.0001559670054120943 2.000149965286255
v -5 0.00015907920897006989 2.000149965286255
v -4 0.00016325160686392337 2.000149965286255
v -3 0.00016807630890980363 2.000149965286255
v -2 0.0001624743890715763 2.000149965286255
v -1 0.000186026023584418 2.000149965286255
v -8 -6.620259895839808e-13 -1.0797216454250247e-8
v -7 0.000051223847549408674 1.0001499652862549
v -7 -0.00002454068817314692 0.000049997499445453286
v -6 0.00005596700793830678 1.0001499652862549
v -6 -0.000026486570277484134 0.000049997499445453286
v -5 0.000059079204220324755 1.0001499652862549
v -5 -0.00002581759872555267 0.000049997499445453286
v -4 0.00006325160939013585 1.0001499652862549
v -4 7.633893517322576e-13 -1.0797216454250247e-8
v -3 0.00006807629688410088 1.0001499652862549
v -3 -0.00001903621159726754 0.000049997499445453286
v -2 0.00006247438432183117 1.0001499652862549
v -2 0.00004720780634670518 0.000049997499445453286
v -1 0.00009487874194746837 1.0000499486923218
v -1 -0.000005121256435813848 0.000049997499445453286
v -9 0.00004181973054073751 0.000049997499445453286
v -10 0.00002451870204822626 0.000049997499445453286
v -11 0.000030335659175761975 0.000049997499445453286
v -12 -7.791545186819349e-13 -1.0797216454250247e-8
v -12 0.00014107020979281515 1.0001499652862549
v -12 0.00024799088714644313 2.0002501010894775
v -12 0.00032273278338834643 3.000349998474121
v -12 0.00043545663356781006 4.000450134277344
v -12 0.0005199479637667537 5.000549793243408
v -12 0.0006361789419315755 6.000649929046631
v -12 0.0006690879235975444 7.0007500648498535
v -11 0.0007721479632891715 8.000749588012695
v -12 0.0007690879283472896 8.000749588012695
v -10 0.0007749359938316047 8.000749588012695
v -9 0.0007842099294066429 8.000749588012695
v -8 0.0007941144285723567 8.000749588012695
v -7 0.0007919690106064081 8.000749588012695
v -6 0.0007906427490524948 8.000749588012695
v -5 0.0007887313258834183 8.000749588012695
v -4 0.0007828192901797593 8.000749588012695
v -3 0.0007781089516356587 8.000749588012695
v -2 0.0007721215952187777 8.000749588012695
v -1 0.0007575217168778181 8.000749588012695
v 0 0.0006508879596367478 7.000649929046631
v 0 0.0005528821493498981 6.000549793243408
v 0 0.0007630657637491822 8.000749588012695
v 0 0.0004886736278422177 5.000450134277344
v 0 0.0003674894105643034 4.000349998474121
v 0 0.00028202374232932925 3.0002498626708984
v 0 0.000186026023584418 2.000149965286255
v 0 0.00009487874194746837 1.0000499486923218
v 0 -1.2856382625159313e-13 -1.0797216454250247e-8
v -8 -1 0
v -12 -1 0
v -4 -1 -3.552713678800501e-15
v 0 -1 0
v -12 -1 8
v -8 -1 8
v -4 -1 8
v 0 -1 8
v 0 1.000076413154602 8.000049591064453
v -4 1 8
v -8 1 8
v -12 1.000076413154602 8.000049591064453
v -4 1 3.552713678800501e-15
v 0 1 0
v -12 1 3.552713678800501e-15
vt 1 0
vt 0.9166666865348816 0.0833333358168602
vt 1 0.0833333358168602
vt 0.9166666865348816 0
vt 0.8333333134651184 0
vt 0.5 0.0833333358168602
vt 0.8333333134651184 0.0833333358168602
vt 0.5 0
vt 1 0.4166666567325592
vt 0.6666666865348816 0.5
vt 1 0.5
vt 0.6666666865348816 0.4166666567325592
vt 0.3333333432674408 0.5
vt 0.3333333432674408 0.4166666567325592
vt 0.75 0.1666666716337204
vt 0.0833333358168602 0.0833333358168602
vt 0.75 0.0833333358168602
vt 0.0833333358168602 0.1666666716337204
vt 0.75 0.25
vt 0.0833333358168602 0.25
vt 0 0.3333333432674408
vt 1 1
vt 0 1
vt 1 0.3333333432674408
vn 0.00000279 -1 0.00003597
vn -0.00005414 -0.99999999 0.00009288
vn 0.00000182 -1 0.00009033
vn 0.00000478 -1 0.00008736
vn 0.00007555 -0.99999999 0.00007409
vn -0.00004513 -0.99999998 0.00019476
vn -0.00000599 -0.99999999 0.0001261
vn 0.00004603 -1 0.00007409
vn -0.00000471 -0.99999999 0.00013081
vn 0 -0.99999999 0.0001261
vn -0.00000591 -0.99999999 0.00011021
vn -0.00002651 -0.99999999 0.00013081
vn -0.00000191 -0.99999999 0.00011393
vn 0.00000182 -0.99999999 0.00011021
vn -0.00000133 -0.99999999 0.00011526
vn 0 -0.99999999 0.00011393
vn -0.00000215 -0.99999999 0.00011512
vn -0.00000229 -0.99999999 0.00011526
vn 0.0000099 -0.99999999 0.00010343
vn -0.00000178 -0.99999999 0.00011512
vn 0.00000927 -1 0.00009288
vn -0.00000128 -0.99999999 0.00010343
vn -0.00005413 -0.99999999 0.00011622
vn -0.00003096 -1 0.00009304
vn -0.00000128 -1 0.00009304
vn 0.0000211 -1 0.00007067
vn -0.00000178 -1 0.00007067
vn -0.00001339 -1 0.00008228
vn -0.00000229 -1 0.00008228
vn -0.00001023 -1 0.00009023
vn 0 -1 0.00009023
vn -1.1e-7 -1 0.00009033
vn -0.00002651 -1 0.00008736
vn 0 -1 0.00006085
vn -0.00004513 -0.99999999 0.00013546
vn 0.00002613 -1 0.0000642
vn 0.00004603 -1 0.00004456
vn -0.00004488 -0.99999999 0.00013546
vn 0.0000163 -1 0.00004456
vn 0.0000163 -1 0.00007601
vn 0.0000038 -1 0.00008851
vn -0.00001023 -0.99999999 0.0001
vn 0.00002113 -1 0.00006864
vn -1.1e-7 -1 0.00006864
vn 1.6e-7 -1 0.00006837
vn 0.00000478 -1 0.00006837
vn -9.6e-7 -1 0.00007412
vn 0 -1 0.00007412
vn -0.00000189 -1 0.00007601
vn -0.00004488 -1 0.00008851
vn 0.00000124 -1 0.0000424
vn 0.00002613 -1 0.0000424
vn -0.00005265 -0.99999999 0.00012117
vn -0.00005265 -0.99999999 0.00011447
vn -0.00002364 -1 0.00008546
vn 0.00000124 -0.99999999 0.00011618
vn 0.00000295 -0.99999999 0.00011447
vn 0.0000038 -0.99999999 0.00011269
vn 3.1e-7 -0.99999999 0.00011618
vn -0.00000189 -0.99999999 0.00010786
vn -0.00000672 -0.99999999 0.00011269
vn -9.6e-7 -0.99999999 0.00010475
vn -0.00000407 -0.99999999 0.00010786
vn 1.6e-7 -0.99999999 0.00010313
vn -0.00000146 -0.99999999 0.00010475
vn 0.00002113 -1 0.00008047
vn -0.00000154 -0.99999999 0.00010313
vn 0.00004307 -1 0.00005119
vn 0.00001378 -1 0.00008047
vn -0.00001339 -0.99999999 0.00015645
vn 0.00004306 -0.99999999 0.0001
vn 0.0000211 -0.99999999 0.00013535
vn 0 -0.99999999 0.00015645
vn -0.00003096 -1 0.00008448
vn -0.00008183 -0.99999999 0.00013535
vn 0.00004885 -1 0.00006727
vn 0.00001611 -0.99999999 0.0001
vn -0.00008183 -0.99999999 0.00011271
vn -0.00006916 -0.99999999 0.00010003
vn 0 -0.99999999 0.00010003
vn 0.00004885 -1 0.00005119
vn -0.00006916 -0.99999999 0.00007473
vn -0.00006169 -1 0.00006727
vn -0.00006169 -0.99999999 0.00010691
vn -0.00001655 -1 0.00006177
vn 0.00001612 -1 0.00006177
vn 0.0000173 -1 0.00006058
vn -0.00005118 -1 0.00006058
vn 0.00000265 -1 0.00000675
vn 0.00001378 -0.99999999 0.0001
vn -0.00005117 -0.99999999 0.00016496
vn -0.00000154 -0.99999999 0.00016496
vn 0 -0.99999999 0.00016342
vn -0.00000146 -0.99999999 0.00016342
vn 0.00000474 -0.99999999 0.00015721
vn -0.00000407 -0.99999999 0.00015721
vn 0.00000311 -0.99999999 0.00015003
vn -0.00000672 -0.99999999 0.00015003
vn 0.00000417 -0.99999999 0.00013914
vn 3.1e-7 -0.99999999 0.00013914
vn 0.00000482 -0.99999999 0.00013462
vn 0.00000295 -0.99999999 0.00013462
vn -0.0000056 -0.99999999 0.00014317
vn -0.00002364 -0.99999999 0.00014317
vn 0.00002355 -1 0.00009599
vn -0.00009326 -0.99999999 0.00014446
vn -0.00002454 -1 0.00007576
vn 0.00000474 -1 0.00007576
vn -0.00000195 -1 0.00008245
vn 0.00000311 -1 0.00008245
vn 6.7e-7 -1 0.00008489
vn 0.00000417 -1 0.00008489
vn 0.00002582 -1 0.00006324
vn 0.00000482 -1 0.00006324
vn -0.00001904 -1 0.0000871
vn -0.0000056 -1 0.0000871
vn 0.00006624 -1 0.00001527
vn 0.00003241 -1 0.00001527
vn -0.00005233 -0.99999999 0.0001
vn 0.00002355 -0.99999999 0.0001
vn 0.00003241 -1 0.00009114
vn -0.0000056 -0.99999999 0.0001
vn 0.00000482 -0.99999999 0.0001
vn 0.00000417 -0.99999999 0.0001
vn 0.00000311 -0.99999999 0.0001
vn 0.00000474 -0.99999999 0.0001
vn 0 -1 0.00000675
vn -0.00009326 -0.99999999 0.0001
vn 0.00000265 -0.99999999 0.0001
vn -0.00004181 -0.99999999 0.00014446
vn 0.0000173 -0.99999999 0.0001
vn -0.00001654 -0.99999999 0.00011072
vn -0.00000582 -0.99999999 0.0001
vn 0 -0.99999999 0.00014105
vn 0.00003033 -0.99999999 0.00011072
vn 0 -0.99999999 0.00010691
vn 0 -1 0.00007473
vn 0 -0.99999999 0.00011271
vn 0 -1 0.00008448
vn 0 -0.99999999 0.00011622
vn 0.00000306 -1 0.00003291
vn 0 -1 0.00003597
vn 0.00000306 -0.99999999 0.0001
vn 0.00000279 -0.99999999 0.0001
vn 0.00000927 -0.99999999 0.0001
vn 0.0000099 -0.99999999 0.0001
vn -0.00000215 -0.99999999 0.0001
vn -0.00000133 -0.99999999 0.0001
vn -0.00000191 -0.99999999 0.0001
vn -0.00000591 -0.99999999 0.0001
vn -0.00000471 -0.99999999 0.0001
vn -0.00000599 -0.99999999 0.0001
vn -0.0000146 -0.99999999 0.0001
vn 0.00007554 -1 0.00000986
vn -0.00009678 -0.99999998 0.00019476
vn 0 -1 0.000098
vn 0.00000554 -1 0.00000986
vn -0.00009678 -0.99999999 0.00011217
vn 0 -1 0.0000642
vn 0 -0.99999999 0.00012117
vn 0 -1 0.00008546
vn 0 -1 0.00009599
vn 0 -1 0.00009114
vn 0 -0.99999999 0.0001
vn 0.00000513 -1 0.00009487
vn 0 -1e-8 -1
vn 0 -0.00074901 0.99999972
vn 0 -0.00074899 0.99999972
vn 0 -0.000749 0.99999972
vn 0 -0.00074902 0.99999972
vn -0.00001241 0.00075018 0.99999972
vn 0 0.00070048 0.99999975
vn 0 0.00075018 0.99999972
vn 0.00001241 0.00070048 0.99999975
vn 0 1e-8 -1
vn -1 0 0
vn 1 0 0
vn 0 1 -0.00000955
g Street
usemtl 1
f 1/1/1 2/2/1 3/3/1
f 1/1/2 4/4/2 2/2/2
f 5/1/3 6/2/3 7/3/3
f 5/1/4 8/4/4 6/2/4
f 9/1/5 10/2/5 11/3/5
f 9/1/6 12/4/6 10/2/6
f 13/1/7 11/2/7 14/3/7
f 13/1/8 9/4/8 11/2/8
f 15/1/9 14/2/9 16/3/9
f 15/1/10 13/4/10 14/2/10
f 6/1/11 16/2/11 17/3/11
f 6/1/12 15/4/12 16/2/12
f 7/1/13 17/2/13 18/3/13
f 7/1/14 6/4/14 17/2/14
f 19/1/15 18/2/15 20/3/15
f 19/1/16 7/4/16 18/2/16
f 21/1/17 20/2/17 22/3/17
f 21/1/18 19/4/18 20/2/18
f 23/1/19 22/2/19 24/3/19
f 23/1/20 21/4/20 22/2/20
f 4/1/21 24/2/21 2/3/21
f 4/1/22 23/4/22 24/2/22
f 25/1/23 4/2/23 1/3/23
f 25/1/24 26/4/24 4/2/24
f 26/1/25 23/2/25 4/3/25
f 26/1/26 27/4/26 23/2/26
f 27/1/27 21/2/27 23/3/27
f 27/1/28 28/4/28 21/2/28
f 28/1/29 19/2/29 21/3/29
f 28/1/30 29/4/30 19/2/30
f 29/1/31 7/2/31 19/3/31
f 29/1/32 5/4/32 7/2/32
f 8/1/33 15/2/33 6/3/33
f 8/1/34 30/4/34 15/2/34
f 31/1/35 12/2/35 9/3/35
f 31/1/36 32/4/36 12/2/36
f 33/1/37 9/2/37 13/3/37
f 33/1/38 31/4/38 9/2/38
f 30/1/34 13/2/34 15/3/34
f 30/1/39 33/4/39 13/2/39
f 34/1/40 33/2/40 30/3/40
f 34/1/41 35/4/41 33/2/41
f 36/1/42 29/2/42 28/3/42
f 36/1/43 37/4/43 29/2/43
f 37/1/44 5/2/44 29/3/44
f 37/1/45 38/4/45 5/2/45
f 38/1/46 8/2/46 5/3/46
f 38/1/47 39/4/47 8/2/47
f 39/1/48 30/2/48 8/3/48
f 39/1/49 34/4/49 30/2/49
f 35/1/50 31/2/50 33/3/50
f 35/1/51 40/4/51 31/2/51
f 40/1/52 32/2/52 31/3/52
f 40/1/53 41/4/53 32/2/53
f 42/1/54 41/2/54 40/3/54
f 42/1/55 43/4/55 41/2/55
f 44/1/56 40/2/56 35/3/56
f 44/1/57 42/4/57 40/2/57
f 45/1/58 35/2/58 34/3/58
f 45/1/59 44/4/59 35/2/59
f 46/1/60 34/2/60 39/3/60
f 46/1/61 45/4/61 34/2/61
f 47/1/62 39/2/62 38/3/62
f 47/1/63 46/4/63 39/2/63
f 48/1/64 38/2/64 37/3/64
f 48/1/65 47/4/65 38/2/65
f 49/1/66 37/2/66 36/3/66
f 49/1/67 48/4/67 37/2/67
f 50/1/68 36/2/68 51/3/68
f 50/1/69 49/4/69 36/2/69
f 51/1/70 28/2/70 27/3/70
f 51/1/71 36/4/71 28/2/71
f 52/1/72 27/2/72 26/3/72
f 52/1/73 51/4/73 27/2/73
f 53/1/74 26/2/74 25/3/74
f 53/1/75 52/4/75 26/2/75
f 54/1/76 50/2/76 55/3/76
f 54/1/77 56/4/77 50/2/77
f 57/1/78 52/2/78 53/3/78
f 57/1/79 55/4/79 52/2/79
f 55/1/80 51/2/80 52/3/80
f 55/1/81 50/4/81 51/2/81
f 58/1/82 55/2/82 57/3/82
f 58/1/83 54/4/83 55/2/83
f 59/1/84 54/2/84 58/3/84
f 59/1/85 60/4/85 54/2/85
f 60/1/86 56/2/86 54/3/86
f 60/1/87 61/4/87 56/2/87
f 61/1/88 62/2/88 56/3/88
f 61/1/89 63/4/89 62/2/89
f 56/1/90 49/2/90 50/3/90
f 56/1/91 62/4/91 49/2/91
f 62/1/92 48/2/92 49/3/92
f 62/1/93 64/4/93 48/2/93
f 64/1/94 47/2/94 48/3/94
f 64/1/95 65/4/95 47/2/95
f 65/1/96 46/2/96 47/3/96
f 65/1/97 66/4/97 46/2/97
f 66/1/98 45/2/98 46/3/98
f 66/1/99 67/4/99 45/2/99
f 67/1/100 44/2/100 45/3/100
f 67/1/101 68/4/101 44/2/101
f 68/1/102 42/2/102 44/3/102
f 68/1/103 69/4/103 42/2/103
f 69/1/104 43/2/104 42/3/104
f 69/1/105 70/4/105 43/2/105
f 71/1/106 72/2/106 63/3/106
f 71/1/107 73/4/107 72/2/107
f 73/1/108 74/2/108 72/3/108
f 73/1/109 75/4/109 74/2/109
f 75/1/110 76/2/110 74/3/110
f 75/1/111 77/4/111 76/2/111
f 77/1/112 78/2/112 76/3/112
f 77/1/113 79/4/113 78/2/113
f 79/1/114 80/2/114 78/3/114
f 79/1/115 81/4/115 80/2/115
f 81/1/116 82/2/116 80/3/116
f 81/1/117 83/4/117 82/2/117
f 83/1/118 84/2/118 82/3/118
f 83/1/119 85/4/119 84/2/119
f 82/1/120 70/2/120 69/3/120
f 82/1/121 84/4/121 70/2/121
f 80/1/122 69/2/122 68/3/122
f 80/1/122 82/4/122 69/2/122
f 78/1/123 68/2/123 67/3/123
f 78/1/123 80/4/123 68/2/123
f 76/1/124 67/2/124 66/3/124
f 76/1/124 78/4/124 67/2/124
f 74/1/125 66/2/125 65/3/125
f 74/1/125 76/4/125 66/2/125
f 72/1/126 65/2/126 64/3/126
f 72/1/126 74/4/126 65/2/126
f 63/1/127 64/2/127 62/3/127
f 63/1/128 72/4/128 64/2/128
f 86/1/129 63/2/129 61/3/129
f 86/1/130 71/4/130 63/2/130
f 87/1/131 61/2/131 60/3/131
f 87/1/131 86/4/131 61/2/131
f 88/1/132 60/2/132 59/3/132
f 88/1/133 87/4/133 60/2/133
f 89/1/134 59/2/134 90/3/134
f 89/1/135 88/4/135 59/2/135
f 90/1/136 58/2/136 91/3/136
f 90/1/136 59/4/136 58/2/136
f 91/1/137 57/2/137 92/3/137
f 91/1/137 58/4/137 57/2/137
f 92/1/138 53/2/138 93/3/138
f 92/1/138 57/4/138 53/2/138
f 93/1/139 25/2/139 94/3/139
f 93/1/139 53/4/139 25/2/139
f 94/1/140 1/2/140 95/3/140
f 94/1/140 25/4/140 1/2/140
f 95/1/141 3/2/141 96/3/141
f 95/1/142 1/4/142 3/2/142
f 96/1/143 97/2/143 98/3/143
f 96/1/143 3/4/143 97/2/143
f 3/1/144 99/2/144 97/3/144
f 3/1/144 2/4/144 99/2/144
f 2/1/145 100/2/145 99/3/145
f 2/1/145 24/4/145 100/2/145
f 24/1/146 101/2/146 100/3/146
f 24/1/146 22/4/146 101/2/146
f 22/1/147 102/2/147 101/3/147
f 22/1/147 20/4/147 102/2/147
f 20/1/148 103/2/148 102/3/148
f 20/1/148 18/4/148 103/2/148
f 18/1/149 104/2/149 103/3/149
f 18/1/149 17/4/149 104/2/149
f 17/1/150 105/2/150 104/3/150
f 17/1/150 16/4/150 105/2/150
f 16/1/151 106/2/151 105/3/151
f 16/1/151 14/4/151 106/2/151
f 14/1/152 107/2/152 106/3/152
f 14/1/152 11/4/152 107/2/152
f 11/1/153 108/2/153 107/3/153
f 11/1/154 10/4/154 108/2/154
f 12/1/155 109/2/155 10/3/155
f 12/1/156 110/4/156 109/2/156
f 10/1/157 111/2/157 108/3/157
f 10/1/158 109/4/158 111/2/158
f 32/1/159 110/2/159 12/3/159
f 32/1/159 112/4/159 110/2/159
f 41/1/160 112/2/160 32/3/160
f 41/1/160 113/4/160 112/2/160
f 43/1/161 113/2/161 41/3/161
f 43/1/161 114/4/161 113/2/161
f 70/1/162 114/2/162 43/3/162
f 70/1/162 115/4/162 114/2/162
f 84/1/163 115/2/163 70/3/163
f 84/1/163 116/4/163 115/2/163
f 85/1/164 116/2/164 84/3/164
f 85/1/165 117/4/165 116/2/165
f 118/5/166 89/6/166 71/7/166
f 118/5/166 119/8/166 89/6/166
f 120/5/166 71/6/166 79/7/166
f 120/5/166 118/8/166 71/6/166
f 121/5/166 79/6/166 117/7/166
f 121/5/166 120/8/166 79/6/166
f 122/5/167 101/6/167 98/7/167
f 122/5/168 123/8/168 101/6/168
f 123/5/168 105/6/168 101/7/168
f 123/5/169 124/8/169 105/6/169
f 124/5/169 111/6/169 105/7/169
f 124/5/170 125/8/170 111/6/170
f 105/9/171 126/10/171 127/11/171
f 105/9/172 111/12/172 126/10/172
f 101/9/173 127/10/173 128/11/173
f 101/9/173 105/12/173 127/10/173
f 98/9/174 128/10/174 129/11/174
f 98/9/173 101/12/173 128/10/173
f 117/9/175 130/10/175 131/11/175
f 117/9/175 79/12/175 130/10/175
f 79/9/175 132/13/175 130/11/175
f 79/9/175 89/14/175 132/13/175
f 119/15/176 98/16/176 89/17/176
f 119/15/176 122/18/176 98/16/176
f 125/15/177 117/16/177 111/17/177
f 125/15/177 121/18/177 117/16/177
f 111/19/177 131/18/177 126/15/177
f 111/19/177 117/20/177 131/18/177
f 89/19/176 129/18/176 132/15/176
f 89/19/176 98/20/176 129/18/176
f 129/21/178 131/22/178 132/23/178
f 129/21/178 126/24/178 131/22/178
